<?xml version="1.0" ?><!-- Uploaded to: SVG Repo, www.svgrepo.com, Generator: SVG Repo Mixer Tools -->
<svg width="800px" height="800px" viewBox="0 0 28 28" fill="#feffea" xmlns="http://www.w3.org/2000/svg"><path d="M2.99701 2C2.44638 2 2 2.44637 2 2.997V6.98502C2 7.53565 2.44638 7.98203 2.99701 7.98203C3.54764 7.98203 3.99399 7.53565 3.99399 6.98502V5.40382L9.75339 11.1633C10.1427 11.5526 10.774 11.5526 11.1634 11.1633C11.5527 10.7739 11.5527 10.1426 11.1634 9.75328L5.40411 3.99401H6.98499C7.53561 3.99401 7.98199 3.54764 7.98199 2.997C7.98199 2.44637 7.53561 2 6.98499 2H2.99701Z" fill="#feffea"/><path d="M2.99701 26C2.44638 26 2 25.5536 2 25.003V21.015C2 20.4643 2.44638 20.018 2.99701 20.018C3.54764 20.018 3.99399 20.4643 3.99399 21.015V22.4053L9.75299 16.6462C10.1424 16.2568 10.7736 16.2568 11.163 16.6462C11.5523 17.0356 11.5523 17.6668 11.163 18.0562L5.2132 24.006H6.98499C7.53561 24.006 7.98199 24.4524 7.98199 25.003C7.98199 25.5536 7.53561 26 6.98499 26H2.99701Z" fill="#feffea"/><path d="M26 25.0028C26 25.5535 25.5536 25.9998 25.003 25.9998H21.015C20.4644 25.9998 20.018 25.5535 20.018 25.0028C20.018 24.4522 20.4644 24.0058 21.015 24.0058H22.5959L16.8321 18.242C16.4427 17.8527 16.4427 17.2214 16.8321 16.832C17.2214 16.4427 17.8527 16.4427 18.2421 16.832L24.006 22.596V21.0148C24.006 20.4642 24.4524 20.0178 25.003 20.0178C25.5536 20.0178 26 20.4642 26 21.0148V25.0028Z" fill="#feffea"/><path d="M24.9824 2.00407C25.533 2.00407 25.9794 2.45044 25.9794 3.00107V6.98909C25.9794 7.53972 25.533 7.98609 24.9824 7.98609C24.4317 7.98609 23.9854 7.53972 23.9854 6.98909V5.42363L18.2462 11.1628C17.8569 11.5522 17.2256 11.5522 16.8363 11.1628C16.4469 10.7735 16.4469 10.1422 16.8363 9.75285L22.591 3.99808H20.9944C20.4438 3.99808 19.9974 3.5517 19.9974 3.00108C19.9974 2.45044 20.4438 2.00407 20.9944 2.00407H24.9824Z" fill="#feffea"/></svg>